<?xml version="1.0" encoding="utf-8"?>
<!-- Generator: Adobe Illustrator 24.1.0, SVG Export Plug-In . SVG Version: 6.00 Build 0)  -->
<svg version="1.1" id="Layer_1" xmlns="http://www.w3.org/2000/svg" xmlns:xlink="http://www.w3.org/1999/xlink" x="0px" y="0px"
	 viewBox="0 0 278 52" style="enable-background:new 0 0 278 52;" xml:space="preserve">
<style type="text/css">
	.st0{fill:#FFFFFF;}
	.st1{fill:#015130;}
	.st2{fill:#F37321;}
	.st3{fill:none;stroke:#015130;stroke-width:1.2597;stroke-miterlimit:10;}
</style>
<path class="st0" d="M44.5,8.5V34c0,1.6,0,6.6-12.5,6.6h-1.2h-1.2c-12.5,0-12.5-5-12.5-6.6V8.5H0v29.3c0,8.1,22.7,8.7,29.7,8.7h1.1
	H31h1c7,0,29.7-0.6,29.7-8.7V8.5H44.5z"/>
<path class="st1" d="M45.8,34V9.8h14.6c0,0,0,27.1,0,28c0,5.3-14.6,7.4-28.4,7.4c0-0.7,0-2.3,0-3.4C38.9,41.9,45.8,40.4,45.8,34"/>
<path class="st2" d="M15.9,34V9.8H1.3c0,0,0,27.1,0,28c0,5.3,14.6,7.4,28.4,7.4c0-0.7,0-2.3,0-3.4C22.8,41.9,15.9,40.4,15.9,34"/>
<line class="st3" x1="72.4" y1="0" x2="72.4" y2="51.9"/>
<g>
	<path class="st1" d="M82.5,10.3H82V6.6h0.5c0.4,2.1,1.4,3.2,3,3.2c1.3,0,2.1-0.7,2.1-1.8c0-0.5-0.2-0.9-0.6-1.2
		c-0.2-0.2-0.7-0.4-1.5-0.5L85,6.1c-1.2-0.3-2-0.7-2.4-1.1S82,4.1,82,3.4c0-1.6,1.1-2.6,2.7-2.6c0.9,0,1.7,0.3,2.4,0.9l0.5-0.8H88
		l0.1,3.3h-0.5c-0.5-1.9-1.5-2.8-3-2.8c-1,0-1.6,0.6-1.6,1.5c0,0.7,0.8,1.3,2.3,1.7l0.3,0.1c0.7,0.2,1.2,0.3,1.5,0.5
		c0.3,0.1,0.5,0.3,0.8,0.5c0.5,0.5,0.8,1.1,0.8,1.9c0,1.8-1.1,2.8-3.1,2.8c-1,0-1.9-0.3-2.5-0.9L82.5,10.3z"/>
	<path class="st1" d="M97.3,7c-0.3,2.1-1.6,3.3-3.5,3.3c-1,0-1.8-0.3-2.5-0.8c-1.1-0.9-1.7-2.3-1.7-3.9c0-1.3,0.4-2.4,1.1-3.3
		c0.8-1,1.8-1.5,3-1.5c0.9,0,1.6,0.3,2.3,0.8l0.5-0.8H97l0.2,3.7h-0.5c-0.4-2.1-1.3-3.2-2.7-3.2c-1.8,0-2.6,1.4-2.6,4.2
		c0,2.9,0.9,4.2,2.7,4.2c1.4,0,2.4-1,2.8-2.8L97.3,7z"/>
	<path class="st1" d="M98.2,10.1V9.5h0.7c0.5,0,0.7-0.2,0.7-0.6V2.2c0-0.5-0.2-0.6-0.7-0.6h-0.7V1h4v0.6h-0.7
		c-0.5,0-0.7,0.1-0.7,0.6V5h4.3V2.2c0-0.5-0.2-0.6-0.7-0.6h-0.7V1h4v0.6H107c-0.5,0-0.7,0.2-0.7,0.6v6.7c0,0.5,0.2,0.6,0.7,0.6h0.7
		v0.6h-4V9.5h0.7c0.5,0,0.7-0.2,0.7-0.6V5.7h-4.3v3.2c0,0.5,0.2,0.6,0.7,0.6h0.7v0.6H98.2z"/>
	<path class="st1" d="M109.6,2.2c0.8-0.9,1.9-1.4,3.1-1.4c1.3,0,2.3,0.4,3.1,1.4c0.8,0.9,1.2,2,1.2,3.4s-0.4,2.4-1.1,3.3
		c-0.8,1-1.9,1.5-3.2,1.5s-2.4-0.5-3.2-1.5c-0.8-0.9-1.1-1.9-1.1-3.3C108.4,4.3,108.8,3.1,109.6,2.2z M112.7,9.8
		c1.8,0,2.7-1.4,2.7-4.2c0-2.9-0.9-4.2-2.7-4.2c-1.8,0-2.7,1.4-2.7,4.2C110.1,8.4,110.9,9.8,112.7,9.8z"/>
	<path class="st1" d="M119.4,2.2c0.8-0.9,1.9-1.4,3.1-1.4c1.3,0,2.3,0.4,3.1,1.4c0.8,0.9,1.2,2,1.2,3.4s-0.4,2.4-1.1,3.3
		c-0.8,1-1.9,1.5-3.2,1.5s-2.4-0.5-3.2-1.5c-0.8-0.9-1.1-1.9-1.1-3.3C118.2,4.3,118.6,3.1,119.4,2.2z M122.5,9.8
		c1.8,0,2.7-1.4,2.7-4.2c0-2.9-0.9-4.2-2.7-4.2c-1.8,0-2.7,1.4-2.7,4.2S120.7,9.8,122.5,9.8z"/>
	<path class="st1" d="M127.5,10.1V9.5h0.7c0.5,0,0.7-0.1,0.7-0.6V2.2c0-0.5-0.1-0.6-0.7-0.6h-0.7V1h4v0.6h-0.7
		c-0.5,0-0.7,0.1-0.7,0.6v6.7c0,0.3,0.1,0.4,0.2,0.5c0.1,0.1,0.4,0.1,0.9,0.1c1.3,0,1.9-0.1,2.3-0.5c0.4-0.4,0.7-1.2,1-2.5h0.5
		l-0.2,3.5h-7.3V10.1z"/>
	<path class="st1" d="M140.5,2.2c0.8-0.9,1.9-1.4,3.1-1.4c1.3,0,2.3,0.4,3.1,1.4c0.8,0.9,1.2,2,1.2,3.4s-0.4,2.4-1.1,3.3
		c-0.8,1-1.9,1.5-3.2,1.5s-2.4-0.5-3.2-1.5c-0.8-0.9-1.1-1.9-1.1-3.3C139.4,4.3,139.8,3.1,140.5,2.2z M143.7,9.8
		c1.8,0,2.7-1.4,2.7-4.2c0-2.9-0.9-4.2-2.7-4.2S141,2.8,141,5.6S141.9,9.8,143.7,9.8z"/>
	<path class="st1" d="M148.6,10.1V9.5h0.7c0.5,0,0.7-0.1,0.7-0.6V2.2c0-0.5-0.1-0.6-0.7-0.6h-0.7V1h7.4l0.2,3.2h-0.5
		c-0.2-1-0.5-1.8-0.9-2.2c-0.4-0.3-1-0.5-2.3-0.5c-0.5,0-0.8,0-0.9,0.1c-0.1,0.1-0.2,0.3-0.2,0.5V5h0.2c1.3,0,1.8-0.4,1.9-1.7h0.5v4
		h-0.5c-0.1-0.6-0.2-1.1-0.5-1.3c-0.3-0.3-0.7-0.4-1.4-0.4h-0.2v3.3c0,0.5,0.1,0.6,0.7,0.6h0.8v0.6H148.6z"/>
	<path class="st1" d="M168.2,7c-0.3,2.1-1.6,3.3-3.5,3.3c-1,0-1.8-0.3-2.5-0.8c-1.1-0.9-1.7-2.3-1.7-3.9c0-1.3,0.4-2.4,1.1-3.3
		c0.8-1,1.8-1.5,3-1.5c0.9,0,1.6,0.3,2.3,0.8l0.5-0.8h0.5l0.2,3.7h-0.5c-0.4-2.1-1.3-3.2-2.7-3.2c-1.8,0-2.6,1.4-2.6,4.2
		c0,2.9,0.9,4.2,2.7,4.2c1.4,0,2.4-1,2.8-2.8L168.2,7z"/>
	<path class="st1" d="M170.4,2.2c0.8-0.9,1.9-1.4,3.1-1.4c1.3,0,2.3,0.4,3.1,1.4c0.8,0.9,1.2,2,1.2,3.4s-0.4,2.4-1.1,3.3
		c-0.8,1-1.9,1.5-3.2,1.5s-2.4-0.5-3.2-1.5c-0.8-0.9-1.1-1.9-1.1-3.3C169.2,4.3,169.6,3.1,170.4,2.2z M173.6,9.8
		c1.8,0,2.7-1.4,2.7-4.2c0-2.9-0.9-4.2-2.7-4.2s-2.7,1.4-2.7,4.2C170.9,8.4,171.7,9.8,173.6,9.8z"/>
	<path class="st1" d="M180.3,1.8V8c0,0.6,0.1,1.1,0.3,1.3s0.6,0.3,1.2,0.3v0.5h-3.6V9.6c0.6,0,1-0.1,1.2-0.3s0.3-0.6,0.3-1.3V2.2
		c0-0.5-0.2-0.6-0.7-0.6h-0.7V1h3.1l2.4,7l2.4-6.9h3.1v0.6h-0.7c-0.5,0-0.7,0.1-0.7,0.6V9c0,0.5,0.1,0.6,0.7,0.6h0.7v0.6h-4.1V9.5
		h0.8c0.5,0,0.7-0.1,0.7-0.6V1.8l-2.8,8.3h-0.5L180.3,1.8z"/>
	<path class="st1" d="M192.2,1.8V8c0,0.6,0.1,1.1,0.3,1.3s0.6,0.3,1.2,0.3v0.5h-3.6V9.6c0.6,0,1-0.1,1.2-0.3s0.3-0.6,0.3-1.3V2.2
		c0-0.5-0.2-0.6-0.7-0.6h-0.7V1h3.1l2.4,6.9l2.4-6.9h3.1v0.6h-0.7c-0.5,0-0.7,0.1-0.7,0.6v6.7c0,0.5,0.1,0.6,0.7,0.6h0.7v0.6h-4.1
		V9.5h0.8c0.5,0,0.7-0.1,0.7-0.6V1.8l-2.8,8.3h-0.5L192.2,1.8z"/>
	<path class="st1" d="M202,1h4.1v0.6h-0.7c-0.5,0-0.7,0.1-0.7,0.6v5.1c0,1.6,0.8,2.3,2.5,2.3c1.1,0,1.9-0.4,2.2-1.2
		c0.1-0.3,0.2-0.7,0.2-1.7v-4c0-0.9-0.2-1.1-0.9-1.1h-0.6V1h3.5v0.6h-0.5c-0.7,0-0.9,0.3-0.9,1.1v4c0,1.3-0.3,2.2-0.8,2.7
		s-1.4,0.8-2.7,0.8c-2.3,0-3.4-1-3.4-3v-5c0-0.5-0.2-0.6-0.7-0.6h-0.7L202,1L202,1z"/>
	<path class="st1" d="M212.1,10.1V9.6c0.5,0,0.9-0.2,1.1-0.4c0.2-0.2,0.3-0.6,0.3-1.2V2c-0.2-0.3-0.4-0.4-1.1-0.4h-0.2V1h2.5l5,6.9
		V3.2c0-0.7-0.1-1.1-0.3-1.3c-0.2-0.2-0.6-0.3-1.2-0.3V1h3.5v0.5c-0.5,0-0.9,0.2-1.1,0.4c-0.2,0.2-0.3,0.6-0.3,1.2v7.2h-0.5
		l-5.6-7.6V8c0,0.6,0.1,1.1,0.3,1.3s0.6,0.3,1.2,0.3v0.5H212.1z"/>
	<path class="st1" d="M222.6,10.1V9.5h0.7c0.5,0,0.7-0.1,0.7-0.6V2.2c0-0.5-0.1-0.6-0.7-0.6h-0.7V1h4.1v0.6H226
		c-0.5,0-0.7,0.1-0.7,0.6v6.7c0,0.5,0.2,0.6,0.7,0.6h0.7v0.6H222.6z"/>
	<path class="st1" d="M235.1,7c-0.3,2.1-1.6,3.3-3.5,3.3c-1,0-1.8-0.3-2.5-0.8c-1.1-0.9-1.7-2.3-1.7-3.9c0-1.3,0.4-2.4,1.1-3.3
		c0.8-1,1.8-1.5,3-1.5c0.9,0,1.6,0.3,2.3,0.8l0.5-0.8h0.5l0.2,3.7h-0.5c-0.4-2.1-1.3-3.2-2.7-3.2c-1.8,0-2.6,1.4-2.6,4.2
		c0,2.9,0.9,4.2,2.7,4.2c1.4,0,2.4-1,2.8-2.8L235.1,7z"/>
	<path class="st1" d="M239.6,0.9h0.5l3.2,8c0.2,0.5,0.4,0.6,0.9,0.6c0.1,0,0.2,0,0.3,0v0.6h-3.8V9.5h0.5c0.6,0,0.8-0.1,0.8-0.3
		c0-0.1-0.1-0.3-0.1-0.4l-0.6-1.6h-3.4l-0.4,1c-0.2,0.2-0.2,0.5-0.2,0.7c0,0.4,0.3,0.6,0.9,0.6h0.3v0.6h-3.2V9.5h0.1
		c0.7,0,1-0.2,1.3-1.1L239.6,0.9z M241,6.5l-1.5-3.6l-1.4,3.6H241z"/>
	<path class="st1" d="M248.9,8.9c0,0.5,0.1,0.6,0.7,0.6h0.8v0.6h-4.3V9.5h0.8c0.5,0,0.7-0.1,0.7-0.6V2.2c0-0.3,0-0.4-0.1-0.5
		s-0.3-0.1-0.7-0.1c-0.6,0-1,0.2-1.3,0.7c-0.3,0.4-0.5,1.2-0.7,2.3h-0.5l0.2-3.5h7.5l0.2,3.5h-0.5c-0.2-1.2-0.4-2-0.7-2.4
		s-0.8-0.6-1.5-0.6c-0.5,0-0.6,0.1-0.6,0.7L248.9,8.9L248.9,8.9z"/>
	<path class="st1" d="M253.1,10.1V9.5h0.7c0.5,0,0.7-0.1,0.7-0.6V2.2c0-0.5-0.1-0.6-0.7-0.6h-0.7V1h4.1v0.6h-0.7
		c-0.5,0-0.7,0.1-0.7,0.6v6.7c0,0.5,0.2,0.6,0.7,0.6h0.7v0.6H253.1z"/>
	<path class="st1" d="M259,2.2c0.8-0.9,1.9-1.4,3.1-1.4c1.3,0,2.3,0.4,3.1,1.4c0.8,0.9,1.2,2,1.2,3.4S266,8,265.3,8.9
		c-0.8,1-1.9,1.5-3.2,1.5c-1.3,0-2.4-0.5-3.2-1.5c-0.8-0.9-1.1-1.9-1.1-3.3C257.9,4.3,258.3,3.1,259,2.2z M262.2,9.8
		c1.8,0,2.7-1.4,2.7-4.2c0-2.9-0.9-4.2-2.7-4.2c-1.8,0-2.7,1.4-2.7,4.2C259.5,8.4,260.4,9.8,262.2,9.8z"/>
	<path class="st1" d="M266.8,10.1V9.6c0.5,0,0.9-0.2,1.1-0.4s0.3-0.6,0.3-1.2V2c-0.2-0.3-0.4-0.4-1.1-0.4h-0.2V1h2.5l5,6.9V3.2
		c0-0.7-0.1-1.1-0.3-1.3c-0.2-0.2-0.6-0.3-1.2-0.3V1h3.5v0.5c-0.5,0-0.9,0.2-1.1,0.4S275,2.5,275,3.1v7.2h-0.5l-5.6-7.6V8
		c0,0.6,0.1,1.1,0.3,1.3c0.2,0.2,0.6,0.3,1.2,0.3v0.5H266.8z"/>
</g>
<g>
	<path class="st1" d="M82.2,31.7v-1h1.1c0.9,0,1.1-0.2,1.1-1V18.5c0-0.8-0.2-1-1.1-1h-1.1v-1h6.9v1H88c-0.9,0-1.1,0.2-1.1,1v11.2
		c0,0.8,0.3,1,1.1,1h1.1v1H82.2z"/>
	<path class="st1" d="M90.7,31.7v-0.9c0.9-0.1,1.5-0.3,1.8-0.6c0.3-0.4,0.5-1.1,0.5-2.1v-10c-0.3-0.5-0.7-0.7-1.9-0.7h-0.4v-1h4.1
		l8.4,11.5V20c0-1.1-0.2-1.8-0.5-2.2c-0.3-0.4-1-0.5-2-0.5v-0.9h5.9v0.9c-0.9,0-1.5,0.3-1.8,0.6c-0.3,0.4-0.5,1.1-0.5,2.1v12h-0.8
		L94,19.3v8.8c0,1.1,0.2,1.8,0.5,2.2c0.4,0.4,1,0.6,2,0.6v0.9L90.7,31.7L90.7,31.7z"/>
	<path class="st1" d="M114.9,29.7c0,0.8,0.2,1,1.1,1h1.4v1h-7.2v-1h1.4c0.9,0,1.1-0.2,1.1-1V18.4c0-0.4-0.1-0.7-0.2-0.9
		c-0.1-0.1-0.5-0.2-1.2-0.2c-1,0-1.7,0.4-2.2,1.1s-0.9,2-1.1,3.9h-0.8l0.3-5.9H120l0.3,5.9h-0.8c-0.3-2-0.7-3.4-1.2-4
		c-0.5-0.7-1.4-1-2.5-1c-0.8,0-1,0.2-1,1.1L114.9,29.7L114.9,29.7z"/>
	<path class="st1" d="M121.9,31.7v-1h1.1c0.9,0,1.1-0.2,1.1-1V18.5c0-0.8-0.2-1-1.1-1h-1.1v-1h12.4l0.3,5.4h-0.9
		c-0.3-1.8-0.8-3.1-1.5-3.7s-1.8-0.8-3.9-0.8c-0.8,0-1.3,0.1-1.5,0.2s-0.3,0.4-0.3,0.8v4.8h0.3c2.2,0,3-0.7,3.2-2.9h0.9V27H130
		c-0.1-1.1-0.4-1.8-0.8-2.3c-0.4-0.4-1.2-0.6-2.3-0.6h-0.3v5.5c0,0.4,0.1,0.7,0.3,0.9c0.2,0.1,0.8,0.2,1.7,0.2c2,0,3.1-0.1,3.9-0.5
		c0.9-0.4,1.5-1.8,2-4.3h0.8l-0.3,5.8H121.9z"/>
	<path class="st1" d="M136.8,31.7v-1h1.1c0.9,0,1.1-0.2,1.1-1V18.5c0-0.8-0.2-1-1.1-1h-1.1v-1h8.5c1.3,0,2.3,0.3,3.1,1
		s1.2,1.6,1.2,2.7c0,2.2-1.5,3.5-4.7,3.8c1.7,0.2,2.6,1.1,3,2.7l0.6,2.4c0.2,1,0.5,1.4,1,1.4c0.6,0,0.8-0.7,0.9-2.2h0.8
		c0,0.1,0,0.4,0,0.5c0,2.1-0.9,3.3-2.6,3.3c-1.6,0-2.3-0.8-2.5-3l-0.2-2.1c-0.2-1.9-1.1-2.7-3.3-2.7h-1.1v5.4c0,0.8,0.2,1,1.1,1h1.3
		v1C143.9,31.7,136.8,31.7,136.8,31.7z M141.3,23.3h1c0.2,0,0.3,0,0.7,0c2.9,0,4.1-0.9,4.1-3s-1-2.9-3.4-2.9h-1.4
		c-0.8,0-1.1,0.2-1.1,0.9L141.3,23.3L141.3,23.3z"/>
	<path class="st1" d="M159,16.2h0.8l5.4,13.5c0.4,0.9,0.6,1.1,1.5,1.1c0.1,0,0.3,0,0.4,0v1h-6.3v-1h0.8c1.1,0,1.3-0.1,1.3-0.5
		c0-0.2-0.1-0.4-0.2-0.7l-1-2.7H156l-0.7,1.6c-0.2,0.4-0.3,1-0.3,1.3c0,0.7,0.5,1,1.5,1h0.5v1h-5.5v-1h0.2c1.1,0,1.6-0.4,2.2-1.8
		L159,16.2z M161.4,25.7l-2.5-6.1l-2.4,6.1H161.4z"/>
	<path class="st1" d="M180.1,26.5c-0.4,3.5-2.7,5.6-6,5.6c-1.6,0-3-0.5-4.1-1.4c-1.9-1.6-2.9-3.8-2.9-6.6c0-2.1,0.6-4,1.8-5.5
		c1.3-1.7,3-2.5,5.1-2.5c1.4,0,2.7,0.5,3.8,1.4l0.8-1.3h0.8l0.3,6.1h-0.8c-0.6-3.5-2.2-5.3-4.6-5.3c-3,0-4.4,2.3-4.4,7
		c0,4.8,1.4,7,4.5,7c2.4,0,4.1-1.6,4.7-4.7L180.1,26.5z"/>
	<path class="st1" d="M189.3,29.7c0,0.8,0.2,1,1.1,1h1.4v1h-7.2v-1h1.4c0.9,0,1.1-0.2,1.1-1V18.4c0-0.4-0.1-0.7-0.2-0.9
		c-0.1-0.1-0.5-0.2-1.2-0.2c-1,0-1.7,0.4-2.2,1.1s-0.9,2-1.1,3.9h-0.8l0.3-5.9h12.7l0.3,5.9H194c-0.3-2-0.7-3.4-1.2-4
		c-0.5-0.7-1.4-1-2.5-1c-0.8,0-1,0.2-1,1.1V29.7z"/>
	<path class="st1" d="M196.4,31.7v-1h1.1c0.9,0,1.1-0.2,1.1-1V18.5c0-0.8-0.2-1-1.1-1h-1.1v-1h6.9v1h-1.1c-0.9,0-1.1,0.2-1.1,1v11.2
		c0,0.8,0.3,1,1.1,1h1.1v1H196.4z"/>
	<path class="st1" d="M212.5,32.1h-0.8l-5.3-13.7c-0.2-0.4-0.3-0.7-0.5-0.8c-0.1-0.1-0.5-0.1-1-0.1h-0.5v-1h6.5v1h-0.8
		c-1,0-1.3,0.1-1.3,0.6c0,0.2,0.1,0.5,0.2,0.7l3.7,9.5l3.3-8.5c0.2-0.5,0.3-0.9,0.3-1.2c0-0.8-0.5-1.1-1.5-1.1h-0.6v-1h5.5v1h-0.1
		c-1.1,0-1.6,0.4-2.1,1.8L212.5,32.1z"/>
	<path class="st1" d="M220.9,31.7v-1h1.1c0.9,0,1.1-0.2,1.1-1V18.5c0-0.8-0.2-1-1.1-1h-1.1v-1h12.4l0.3,5.4h-0.9
		c-0.3-1.8-0.8-3.1-1.5-3.7s-1.8-0.8-3.9-0.8c-0.8,0-1.3,0.1-1.5,0.2s-0.3,0.4-0.3,0.8v4.8h0.3c2.2,0,3-0.7,3.2-2.9h0.9V27H229
		c-0.1-1.1-0.4-1.8-0.8-2.3c-0.4-0.4-1.2-0.6-2.3-0.6h-0.3v5.5c0,0.4,0.1,0.7,0.3,0.9c0.2,0.1,0.8,0.2,1.7,0.2c2,0,3.1-0.1,3.9-0.5
		c0.9-0.4,1.5-1.8,2-4.3h0.8l-0.3,5.8H220.9z"/>
</g>
<g>
	<path class="st1" d="M85.2,37v10.3c0,1.1,0.2,1.8,0.5,2.2c0.4,0.4,1,0.5,2,0.5v0.9h-6.1V50c1,0,1.6-0.2,2-0.5
		c0.4-0.4,0.5-1.1,0.5-2.2v-9.6c0-0.8-0.3-1-1.1-1h-1.2v-1h5.3l4.1,11.7l4-11.7h5.2v1h-1.1c-0.9,0-1.1,0.2-1.1,1v11.2
		c0,0.8,0.2,1,1.1,1h1.1v1h-6.8v-1h1.3c0.9,0,1.1-0.2,1.1-1V37l-4.7,13.9h-0.8L85.2,37z"/>
	<path class="st1" d="M101.9,50.9v-1h1.1c0.9,0,1.1-0.2,1.1-1V37.6c0-0.8-0.2-1-1.1-1h-1.1v-1h12.4l0.3,5.4h-0.9
		c-0.3-1.8-0.8-3.1-1.5-3.7c-0.7-0.6-1.8-0.8-3.9-0.8c-0.8,0-1.3,0.1-1.5,0.2c-0.2,0.1-0.3,0.4-0.3,0.8v4.8h0.3c2.2,0,3-0.7,3.2-2.9
		h0.9v6.7H110c-0.1-1.1-0.4-1.8-0.8-2.3c-0.4-0.4-1.2-0.6-2.3-0.6h-0.3v5.5c0,0.4,0.1,0.7,0.3,0.9c0.2,0.1,0.8,0.2,1.7,0.2
		c2,0,3.1-0.1,3.9-0.5c0.9-0.4,1.5-1.8,2-4.3h0.8l-0.3,5.8L101.9,50.9L101.9,50.9z"/>
	<path class="st1" d="M116.8,50.9v-1h1.1c0.9,0,1.1-0.2,1.1-1V37.6c0-0.8-0.2-1-1.1-1h-1.1v-1h7.6c4.5,0,6.9,2.7,6.9,7.6
		c0,2.3-0.6,4.2-1.7,5.6c-1.1,1.4-2.7,2-4.7,2h-8.1V50.9z M121.3,48.9c0,0.8,0.2,1,1.1,1h1.7c1.6,0,2.8-0.5,3.5-1.5
		c0.7-1,1-2.7,1-5.1c0-4.7-1.4-6.6-4.8-6.6h-1.4c-0.9,0-1.1,0.2-1.1,1V48.9z"/>
	<path class="st1" d="M131.3,50.9v-1h1.1c0.9,0,1.1-0.2,1.1-1V37.6c0-0.8-0.2-1-1.1-1h-1.1v-1h6.9v1H137c-0.9,0-1.1,0.2-1.1,1v11.2
		c0,0.8,0.3,1,1.1,1h1.1v1h-6.8V50.9z"/>
	<path class="st1" d="M146.6,35.4h0.8l5.4,13.5c0.4,0.9,0.6,1.1,1.5,1.1c0.1,0,0.3,0,0.4,0v1h-6.3v-1h0.8c1.1,0,1.3-0.1,1.3-0.5
		c0-0.2-0.1-0.4-0.2-0.7l-1-2.7h-5.7l-0.7,1.6c-0.2,0.4-0.3,1-0.3,1.3c0,0.7,0.5,1,1.5,1h0.5v1h-5.5v-1h0.2c1.1,0,1.6-0.4,2.2-1.8
		L146.6,35.4z M149,44.8l-2.5-6.1l-2.4,6.1H149z"/>
</g>
</svg>
